<?xml version="1.0" encoding="UTF-8"?>
<svg id="Layer_1" data-name="Layer 1" xmlns="http://www.w3.org/2000/svg" version="1.1" viewBox="0 0 1920 1080">
  <defs>
    <style>
      .cls-1 {
        fill: #000;
      }

      .cls-1, .cls-2, .cls-3 {
        stroke-width: 0px;
      }

      .cls-2 {
        fill: none;
      }

      .cls-3 {
        fill: #fff;
      }
    </style>
  </defs>
  <path class="cls-1" d="M865.63,610c-51.87-.42-98.66-15.36-137.15-50.96-39.28-36.33-63.49-81.39-69.33-134.82-6.03-55.23,7.59-106.27,39.16-151.98,33.92-49.11,80.89-78.07,140.17-85.47,65.99-8.24,123.85,9.8,170.83,57.82,36.92,37.73,57.06,83.83,61.36,136.16,6.57,80.02-23.9,144.34-87.38,192.42-34.35,26.02-74.48,37.06-117.65,36.83ZM897.69,543.34c.02.59.03,1.17.05,1.76,1.06.21,2.12.52,3.19.63,28.85,2.9,57.75,3.69,86.7,1.86,1.9-.12,4.15-1.23,5.48-2.61,6.21-6.48,12.45-12.98,18.15-19.9,26.68-32.4,42.27-69.45,45.02-111.44,2.52-38.54-5.62-75.1-22.89-109.53-41.37-82.48-130.97-122.61-218.86-97.86-53.67,15.11-92.24,48.93-117.69,97.92-17.51,33.72-25.74,69.89-23.52,107.89,3.08,52.67,26.36,96.15,63,133.09,1.25,1.26,3.32,2.27,5.07,2.38,9.29.56,18.61,1.24,27.91,1.07,24.1-.44,48.2-1.28,72.3-2.03,1.24-.04,2.47-.67,3.7-1.02l-.16-1.88c-29.91-1.4-59.82-2.79-89.73-4.19,3.18-1.14,6.42-1.59,9.67-1.69,11.81-.38,23.62-.65,35.43-.94,11.45-.28,19.98-6.14,27.94-13.76,3.14-3.01,4.96-6.85,7.61-9.7,4.97-5.36,6.31-11.48,7.67-17.96,1.22-5.79,1.76-11.54,5.13-16.97,2.4-3.87,3.69-9.51-.03-14.09-7.43-9.14-17.29-14.16-28.81-16.89-.67,9.56-1.3,18.7-1.94,27.84l-1.48-.05v-26.01s-1.01,0-1,0v34.49s-1.09,0-1.45,0c-.24-2.96-.47-5.92-.71-8.88-.28,0-.56,0-.84,0v22.37c-.9.05-.53.03-1.43.08-1.91-17.14-3.82-34.29-5.75-51.7-1.19.1-2.97.03-3.02.28-.93,4.66-1.66,9.35-2.57,14.93-1.04-5.08-1.92-9.4-2.81-13.71q-8.01,2.28-8.06,10.11c-.02,5.45,0,10.9,0,16.88-.6-1.14-.92-1.75-1.74-3.3-.71,6-1.3,11.04-1.89,16.08-.24-.03-.48-.07-.72-.1v-8.42c-.32-.02-.63-.04-.95-.06-.39,7.64-.77,15.28-1.16,22.93h-1.31c-1.14-15.94-2.28-31.89-3.43-47.84l-1.85-.06c-.38,2.71-.81,5.42-1.12,8.15-.37,3.21-.64,6.43-.96,9.64h-.72c-.77-6.09-1.54-12.18-2.31-18.28h-1.48c-.45,3.61-.89,7.22-1.46,11.81-.87-4.51-1.53-7.95-2.46-12.76-1.44,2.25-2.49,3.2-2.68,4.3-1.28,7.5-.04,15.17-2.92,22.71-1.63,4.26-.29,9.65-.29,14.53-.59,0-1.18-.01-1.77-.02-.27-5.2-.54-10.4-.8-15.6-.45.03-.89.07-1.34.1v9.57c-1.25-3.56-1.6-7.16-1.69-10.77-.18-6.73-.09-13.47-.41-20.19-.06-1.19-1.61-2.32-2.47-3.47-1.14,1.07-2.77,1.94-3.3,3.26-.66,1.64-.32,3.65-.56,5.49-.39,3.06-.88,6.11-1.34,9.17h-.91c-.94-7.01-1.88-14.01-2.83-21.02l-1.63-.02c-.58,3.57-1.16,7.14-1.74,10.72-1.09-3.62-2.12-7.03-3.14-10.43l-1.67.18-2.69,33.35h-1.34c-.88-10.53-1.72-21.07-2.7-31.59-.11-1.14-1-2.21-1.53-3.31l-1.53.45c-1.08,10.95-2.16,21.91-3.24,32.86h-.27c-.68-10.03-1.37-20.05-2.05-30.08-.32.03-.64.06-.96.1v13.24c-.06,0-.11,0-.17.01-.54-5.23-1.09-10.46-1.62-15.63-7.63.17-13.36-2.3-18.23-7.53,10.31-7.74,22.22-9.36,35.11-8.81-1.11-1.76-2.38-2.68-3.78-3.27-3.38-1.43-6.82-2.71-10.24-4.05.19-.45.37-.9.56-1.36.56.06,1.52.34,1.62.16,4.51-8.52,13.96-6.29,20.88-9.51,3.32-1.55,7.29-1.69,10.94-2.57,7.8-1.89,15.37-5.66,23.62-.98,2.95,1.67,6.75,2.83,10.06,2.62,4.93-.3,9.78-2.03,14.66-3.13.74-.17,1.63-.59,2.24-.35,5.33,2.1,10.66,4.22,15.83,6.65.74.35,1.2,3.4.84,3.61-2.94,1.76-6.05,3.27-9.22,4.6-1.81.76-4.07.67-5.67,1.69-1.35.86-2.04,2.76-3.02,4.21,1.47.93,2.84,2.21,4.45,2.69,1.82.55,3.97.01,5.78.57,12.29,3.79,24.52,7.75,37.69,11.94,1.76-13.36,3.51-26.84,5.32-40.3.77-5.73-2.22-9.95-5.63-15.12v6.81c-3.02-7.22-4.48-14.37-13.53-14.5-.4,7.25-.81,14.79-1.22,22.32-1.13-1.9-1.53-3.81-1.79-5.74-.71-5.43-1.12-10.91-2.19-16.26-.29-1.46-2.46-2.54-3.77-3.79-.62,1.32-1.68,2.6-1.77,3.96-.25,3.47-.09,6.98-.09,10.47l-1.45.09c-.58-4.77-1.17-9.54-1.75-14.31l-1.23-.07c-.36,1.49-.71,2.98-.81,3.39-.87-1-2.04-2.35-3.21-3.7-.88,1.6-2.15,3.11-2.56,4.83-.6,2.56-.62,5.25-.87,7.9h-.76c-.29-3.87-.59-7.72-.88-11.58l-1.41-.03c-.65,5.32-1.3,10.65-1.95,15.97-1.3-3.27-1.71-6.4-1.82-9.53-.26-7.37-.7-8.64-3.17-7.42-.18,1.13-.38,2.39-.64,3.96-.59-1.49-1.08-2.71-1.56-3.93l-1.25.18c-.55,5.79-1.1,11.59-1.65,17.38l-.57.02c-1.01-5.86-2.03-11.71-3.04-17.57l-1.78-.04-1.38,6.27c-.96-2.44-1.7-4.34-2.81-7.17-1.13,3.05-1.9,5.15-2.68,7.24-1.16-2.6-1.64-6.48-3.41-7.2-6.65-2.7-13.72-4.36-20.76-6.46-1.49,7.92-3.01,15.5-4.29,23.12-.37,2.23-.06,4.58-.06,6.87-.33,0-.65,0-.98,0-.19-2.63-.39-5.25-.58-7.89l-.68,7.29h-.85c-.74-9.35-1.49-18.69-2.23-27.99-5.08-.02-6.58,1.89-6.65,6.11-.1,6.48-.93,12.96-1.45,19.43h-.4s-2.51-22.4-2.51-22.4l-1.42-.06c-.56,2.87-1.12,5.74-1.93,9.86-.22-3.52-.36-5.71-.5-7.9l-1.09-.04c-.39,2.96-.78,5.92-1.22,9.23-.42-.83-.68-1.34-1.43-2.82v12.78c-.25-.02-.51-.04-.76-.06-.33-5.52-.66-11.05-.98-16.57l-.91-.04c-.31,2.19-.61,4.37-1.1,7.84-.19-2.57.15-4.17-.5-5.12-.79-1.17-3.14-2.79-3.57-2.49-3.31,2.3-6.55.88-9.7.16-5.04-1.16-10-2.71-14.99-4.1l-.13-1.43c3.87-1.86,7.69-3.8,11.6-5.57,3.76-1.7,7.96-2.72,11.34-4.95,5.47-3.61,10.18-5.37,16.09-.51,3.03,2.49,6.38.81,8.02-3.35.7,1.86,1.31,3.5,1.95,5.2,1.94-.45,3.67-.85,5.63-1.3v-5.86c-6,2.21-6.25,2-9.65-3-.8-1.18-2.78-2.37-4.13-2.29-4.9.31-8.63-1.67-12.35-4.54,3.28-2.23,6.18-4.26,9.16-6.19,2.22-1.44,4.48-2.83,6.83-4.05.8-.42,2.12.06,2.87-.39,4.94-2.93,9.74-6.1,15.92-3.14.56.27,1.67-.25,2.39-.64,10.57-5.68,20.92-4.41,31.33.57,4.73,2.26,9.79,3.87,14.6,6.01,4.76,2.12,11.17,2.22,12.32,9.03-1.74,1.23-4.28,2.1-5.02,3.75-1.8,4.02-4.92,3.7-8.14,3.22-4.65-.68-9.34-1.35-13.83-2.62-3.03-.86-5.77-1.12-6.66,2.03-.67,2.37-.59,5.68.66,7.68,3.46,5.55,9.3,6.49,15.75,6.23.32-4.11.62-7.9.92-11.69h.99c.25,3.85.5,7.69.73,11.28h19.15c-.02-.39-.04-.78-.06-1.17-1.06.15-2.12.29-2.87.39.16-1.91.3-3.64.44-5.47,3.48-.61,6.97-1.41,10.5-1.79,7.76-.85,10.71.65,12.74,5.94-3.71,1.85-7.4,3.69-11.15,5.57,6.12,2.66,11.6,5.05,17.59,7.65.52-8.56,3.52-17.94-3.77-25.21-6.15-6.14-10.34-15.15-21.08-15.52l.7-1.61c1.6.17,3.2.35,5.54.6-.22-3.74-.44-7.56-.67-11.38l1.38-.44c2.78,4.3,6.22,8.32,8.1,12.99,2.2,5.45,6.02,8.27,10.93,10.67,1.43-14.88.31-21.92-4.35-26.61-.27,2.45-.51,4.67-.75,6.89-1.25-1.73-1.35-3.36-1.65-4.95-1.28-6.64-8.39-11.19-16.8-10.9-7.13.25-5.32,6.12-6.68,11.46-.67-3.82-1.15-6.52-1.82-10.38-1.22,3.73-2.03,6.2-3.03,9.29q-3.31-8.99-9.96-7.24c-.25,1.53-.5,3.07-.75,4.6-.25-5.59-3.51-7.64-8.37-8.59-4.11-.8-8.04-4-10.84-1.44-3.82-.2-6.29-.57-8.73-.4-3.82.27-8.93-2.07-8.98-4.87-.09-5.18,5.48-4.05,7.97-6.04s5.02-3.32,8.01-3.75c7.23-1.05,14.11-6.73,21.42-7.38,6.49-.58,13.24.94,19.78,2.09,6.29,1.1,11.47,4.33,15.3,10.9-3.47.35-6.3.64-9.58.97.91,5.51,6.5,5.03,9.73,7.44,3.63,2.7,7.35,5.27,11.84,8.48-.42-5.97-1.04-11.65-1.17-17.35-.19-8.21-4.66-12.78-11.88-15.26-8.21-2.82-15.22-8.29-24.61-8.87-4.75-.29-9.21-5.45-14.02-8.55-.7,3.69-1.36,7.19-2.03,10.68l-.63-.04c-.18-3.98-.37-7.96-.55-11.94l-.76-.13-3.95,9.8c-.81-4.79-1.44-8.56-2.08-12.32l-1.88.08c-.54,6.39-1.07,12.79-1.61,19.18l-.84.02c-.8-5.58-1.59-11.16-2.41-16.88-.31.71-.54,1.25-1.12,2.59-.12-2.31.06-3.85-.38-5.18-.25-.76-1.58-1.78-2.28-1.68-7.18,1.04-12.73-2.29-17.67-5.53,6.5-9.41,16.54-10.65,26.09-12.98-.03-3.15,5.9-11.03,9.1-12.27,6.98-2.71,13.98-5.39,20.9-8.27,3.55-1.48,6.82-3.74,10.44-4.94,2.98-.99,6.29-1.14,9.47-1.33,4.78-.28,9.58-.42,14.36-.32,2.93.06,5.95,1.37,8.75.94,8.88-1.36,15.58,3.7,22.01,8.09,3.2,2.18,5.61,3.61,9.36,3.23,3.42-.35,7.06-.74,9.2,3.09,1.28,2.29,2.58,4.58,3.25,5.78,5.56,1.01,10.53,2.22,15.57,2.75,8.06.85,11.43,8.76,18.05,11.73,2.02.91,3.7,2.56,5.63,3.71,1.14.69,2.46,1.08,3.52,1.53-2.34,7.72-7.47,11.53-14.39,13.34-6.05,1.58-13.77,1.19-12.17,12.13-.49-.39-.98-.79-1.47-1.18.24-2.7.48-5.39.69-7.8-2.75-.73-5.41-1.32-8.01-2.14-3.24-1.02-6.34.83-6.87,4.18-.22,1.37-.53,2.72-.8,4.08h-.84c-.45-2.26-.9-4.53-1.35-6.79l-1.12.02-1.67,9.95c-.58-1.75-1.14-3.42-1.69-5.08l-1.17.13c-.37,4.03-.74,8.07-1.11,12.1l-.67.03c-.76-4.02-1.51-8.04-2.27-12.06l-2.08.06c-.93,7.34-1.85,14.67-2.83,22.39,1.31-.54,2.38-.7,3.04-1.3,5.34-4.99,11.17-4.16,17.24-1.73,2.82,1.12,5.67,2.37,8.63,2.87,4.09.71,8.23.83,6.62,6.33-1.38,1.24-2.66,2.38-3.94,3.51,1.82.56,3.95,2.03,5.41,1.52,8.45-2.93,12.8-9.88,16.91-18.52-8.22,2.73-15.35,4.16-22.63-.03,3.96-3.04,7.45-5.37,10.53-8.16,4.99-4.54,17.54-6.54,22.89-3.13,4.25,2.71,8.33,5.69,12.39,8.48,1.14-.79,2.4-2.38,3.42-2.24,4.47.61,9.49.31,12.06,5.47.46.92,1.63,1.49,2.48,2.19,2.1,1.74,4.21,3.46,7.28,5.99,3.55-.26,8.19,2.42,10.77,7.69-6.49,3.31-11.36,8.15-11.76,16.14-.31-3.47-.62-6.95-.93-10.42-.37,0-.74,0-1.12.01-.29,1.39-.58,2.78-.6,2.88-.87-1.17-2.26-3.06-3.68-4.97l-1.57.45c-.29,3.49-.59,6.99-.9,10.68-.26-1-.45-1.76-.88-3.39-.95,2.65-1.58,4.42-2.46,6.88-.59-5.73-1.1-10.71-1.61-15.68h-1.17c-.23,1.94-.46,3.89-.7,5.86-.66-3.81-1.3-7.52-1.95-11.22l-2.16.05c-.71,5.62-1.42,11.24-2.14,16.85h-.93c-.79-5.26-1.57-10.52-2.36-15.79l-1.17-.14c-.45,1.11-.9,2.22-1.11,2.75-.78-.23-1.57-.75-2.07-.55-2.29.94-4.43,2.3-6.75,3.12-5.16,1.81-7.97,4.7-7.89,10.82.06,4.84-1.56,9.69-2.46,14.54-.08.42-.3.82-.46,1.22-.27-.16-.54-.32-.8-.48-.55-8.71-1.11-17.42-1.72-27.05-5.66,2.17-10.48,3.78-15.07,5.88-2.58,1.18-4.79,3.18-7.27,4.88-.38-.33-1.78-2.6-3.34-2.72-10.03-.78-20.12-.95-29.76,2.6-21.43,7.9-22.94,22.49-16.63,39.92,6.43-2.43,12.87-4.86,20.73-7.83-7.47-2.4-13.83-4.45-20.47-6.58,3.66-8.53,10.81-12.34,18.26-15.71,1.08-.49,2.56-.37,3.8-.16,5.79.96,12.13-.85,17.31,3.47.47.4,1.88-.57,2.76-.4,3.94.77,8.26.97,11.63,2.86,2.75,1.54,4.34,5.19,6.27,7.69-2.8,5-7.68,3.29-11.92,3.73-4.5.47-9.01.84-13.51,1.25.43,4.43,1.53,5.35,5.56,4.37,7.1-1.73,13.73-.06,20.2,2.72.85.37,1.48,1.27,3.05,2.67-2.66-.16-4.11-.34-5.56-.33-8.04.06-16.08.02-24.11.38-1.6.07-4.43,1.66-4.47,2.65-.37,8.05-.21,16.12-.21,25.52,3.64-2.14,6.57-3.86,9.5-5.59l-.17-1.48c-2.79-.85-5.58-1.7-8.3-2.54,5.21-10.43,15.43-12.09,27.64-3.9-4.83,6.09-13.16,2.84-18.39,7.31.52,4.58,3.71,2.25,5.48,1.61,12.44-4.52,25.14-6.09,38.26-4.16v-16.51c-3.6-.18-7.17.48-9.96-.73-2.72-1.17-4.63-4.25-6.84-6.42,2.69-2.29,4.76-3.66,6.34-5.47,5.77-6.6,13.89-8.01,21.46-7.63,6.92.35,15.7-2.29,20.45,6.35.13.24.54.49.8.47,3.94-.27,6.61,1.99,9.75,4.01,3.35,2.15,6.12,3.66,4.18,8.99,2.7-.66,4.61-.92,6.37-1.59,3.47-1.32,6.54-1.81,9.33,1.59.93,1.13,2.89,1.34,4.31,2.11,4.24,2.29,8.45,4.66,12.84,7.09-8.04,9.66-18.31,8.3-28.24,8.44-.4,7.69-.78,15.06-1.16,22.43h-.88s-1.27-17.53-1.27-17.53h-.54s-1.4,24.51-1.4,24.51l-1.12.02c-.98-10.4-1.96-20.81-3.06-32.54-5.46,7.89-11.24,13.75-10.61,23.38.47,7.13-.93,14.39-1.5,21.59-1.04-1.03-1.17-2.01-1.24-2.98-.57-7.81-1.03-15.62-1.79-23.41-.11-1.17-1.59-3.09-2.5-3.13-2.51-.13-7.59-1.54-9.24-2.74-1.56-1.13-3.51-1.7-5.7-2.71-.79,3.82-1.38,6.64-2.22,10.69-.12-2.31.06-3.41-.28-4.29-.69-1.73-1.53-4.65-2.55-4.75-3.03-.32-3.12,2.44-3.26,4.82-.23,4.15-.59,8.3-.89,12.44l-1.54-.09v-18.96c-1.05-.35-1.34-.51-1.65-.54-3.79-.42-9.68-2.47-10.93-.88-2.22,2.82-1.7,7.85-2.2,11.97-.56,4.62-.98,9.25-1.46,13.88l-1.76-.09v-24.41c-1.45-.15-.94-.1-2.39-.24-1.04,5.05-2.08,10.1-3.13,15.15l-.8-.05c-.35-4.54-.69-9.08-1.04-13.61h-2.1c-.8,9.33-1.6,18.67-2.4,28l-1.23.02c-.27-2.43-.54-4.85-.81-7.28l-.93.03c-.41,8.06-.83,16.13-1.24,24.19h-1.29c-.81-13.95-1.61-27.9-2.48-42.99-5.96,3.79-2.82,9.12-4.14,12.56-1.03-3.02-2.17-6.34-3.31-9.66l-1.7.13c-.33,1.82-.66,3.65-1.03,5.66-.92-1.42-1.7-2.62-3-4.62-.36,2.65-.57,4.21-.82,6.05-.55-1-.95-1.74-1.34-2.47l-.83.21s0,8.61,0,12.65c-.3,0-.6.01-.91.02-.35-3.52-.69-7.03-1.04-10.55h-1.25c-.19,2.08-.38,4.16-.65,7.07-.35-2.62-.59-4.42-.83-6.21h-.92c-.78,6.61-1.56,13.22-2.34,19.83l-.69-.02c-.51-7.07-1.01-14.14-1.52-21.22l-2.01-.03c-.33,3.38-.66,6.76-.99,10.14l-.56.03c-.55-2.56-1.1-5.12-1.65-7.67l-1.4-.14c-.73,1.68-1.46,3.36-2.09,4.83-.19-.58-.47-1.44-.75-2.29l-1.72-.16c-2,3.6-5.26,7.15-5.44,10.83-.34,7.28,1.13,14.65,1.97,21.97.41,3.54,2.2,4.13,5.49,2.69,5.09-2.23,10.42-3.91,15.58-5.98,2.45-.99,4.75-2.35,7.59-3.77.38.43,1.4,2.29,2.97,3.22,5.35,3.19,10.91,6.04,16.37,9.06,3.97,2.2,7.89,5.2,11.32.27,1.99,1.55,3.76,4.03,5.27,3.88,3.66-.36,7.26-1.78,10.74-3.13.9-.35,1.29-2.02,1.92-3.09-1.13-.4-2.41-1.36-3.37-1.11-7.43,1.96-13.65-.89-19.86-4.4,15.68-19.55,40.69-18.9,53.52-7,2.73.35,4.4.39,5.96.79,5.73,1.48,11.02,4.63,17.38,3.76,1.35-.19,3.03,2.02,4.55,3.13-.22.48-.45.95-.67,1.43,2.01-.35,4.03-.69,6.43-1.1-.13,1.51-.24,2.65-.37,4.15,1.98-.14,3.75-.5,5.47-.34,3.97.37,7.97.8,11.85,1.68.85.19,1.26,2.34,1.87,3.59-3.54,1.67-6.93,4.08-10.65,4.79-3.22.61-6.82-.61-10.22-1.18-8.08-1.35-9.26-.49-10.2,7.66-.06.48-.23.95-.55,2.2-.37-2.32-.86-3.89-.82-5.45.11-4.67-4.39-2.86-6.3-4.66-.7,1.65-1.81,3.24-2.04,4.95-.6,4.49-.82,9.02-1.19,13.54l-1.4.06c-.9-5.38-1.8-10.77-2.71-16.15h-1.17c-.45,3.05-.9,6.09-1.34,9.12-1.08-1.63-.97-3.38-1.43-4.97-.4-1.38-1.43-2.57-2.19-3.85-.81,1.15-1.94,2.21-2.36,3.49-.53,1.62-.49,3.43-.69,5.15-.77-1.85-.96-3.79-1.42-5.66-.19-.79-.94-1.43-1.44-2.14-.68.73-1.86,1.39-1.96,2.19-1.21,9.57-2.36,19.15-3.32,28.74-.65,6.46-.97,12.96-1.44,19.43l-1.41-.05s0-26.11,0-39.37c-.33,0-.65.01-.98.02-.45,10.28-.9,20.57-1.35,30.85h-1.17c-.81-12.54-1.62-25.1-2.43-37.66h-.6c-1.14,23.33-2.27,46.65-3.41,69.97-.69-.01-1.38-.02-2.07-.03v-43.02c-.67,0-1.33,0-2,0,0,5.75,0,16.45,0,16.45l-1.3.04c-.93-16.16-1.87-32.33-2.8-48.39-4.69,1.12-8.82,2.11-13.16,3.16-.73,9.59-1.46,19.13-2.19,28.67h-.86c-.4-4.6-.79-9.2-1.19-13.81h-.5v14.23c-1.28-2.28-1.83-4.64-1.95-7.02-.36-6.98-.47-13.97-.87-20.95-.06-1.02-1.16-1.99-1.79-2.98-.81.83-1.62,1.65-1.84,1.88-5.13-6.18-12.68-8.82-21.13-11.51-.33,3.94-.6,7.23-.93,11.3-.96-2.97-2.12-5.12-2.26-7.33-.22-3.5-1.71-4.2-4.83-3.55-8.71,1.82-14.76,7.44-19.83,14.17-4.37,5.8-3.28,12.08-.73,18.38,1.89,4.69,3.47,9.51,5.04,14.32,1.43,4.39,1.83,9.36,4.16,13.17,3.86,6.32,8.09,12.91,13.68,17.57,6.56,5.47,13.64,11.01,23.34,10.96,13.64-.07,27.28.53,40.92.94,2.41.07,4.8.59,7.2.9-.02.3-.05.6-.07.9-25.33,1.25-50.66,2.49-75.99,3.74ZM889.43,287.84c-6.89.71-12.4,3.28-15.33,8.84-5.35,10.15-2.97,21.22-3.22,32.22,6.89-3.31,13.19-6.34,20.49-9.85-1.15-.87-2.25-2.3-3.6-2.59-4.01-.88-4.41-3.46-2.41-5.96,2.07-2.59,5.14-4.38,8.12-6.8-.28-1.26-.73-3.23-1.25-5.52-.51.94-.77,1.42-1.22,2.26-.56-4.5-1.05-8.4-1.58-12.59ZM876.46,399.16c6.28-2.52,12.28-4.92,18.11-7.25v-24.82c-20.58,4.59-25.71,14.35-18.11,32.07ZM880.26,552.74c-.03.62-.06,1.24-.09,1.85,2.03.33,4.06.91,6.1.95,30.27.69,60.55,1.38,90.82,1.8,2.17.03,4.37-1.95,6.55-2.99-.23-.54-.47-1.08-.7-1.62h-102.68ZM746.72,553.36c-.22.64-.44,1.28-.66,1.93,2.72.87,5.46,2.53,8.16,2.49,27.8-.42,55.61-1.12,83.41-1.76.53-.01,1.05-.24,1.57-.36-30.83-3.54-61.6-5.74-92.48-2.3ZM861.09,563.99c.02-.71.03-1.42.05-2.12-34.81-2.08-69.68-.83-104.7-.27,2,1.59,4.18,3.08,6.36,3.09,30.83.12,61.65.04,92.48-.04,1.94,0,3.88-.43,5.81-.66ZM871.96,277.15c.95,2.66,2.03,5.65,2.96,8.25,3.56.56,4.69-2.24,7.45-2.78,5.97-1.16,11.56-4.4,17.2-7.04,1.12-.52,2.36-2.09,2.46-3.26.32-3.68.12-7.4.12-12.66-1.49,1.87-2.05,2.63-2.67,3.35-1.46,1.71-2.74,4.56-4.46,4.86-4.93.88-7.86,3.27-9.17,7.98-.15.55-.84.94-.93,1.04-1.59-2.22-3.12-4.36-4.64-6.47-2.8,2.26-5.34,4.32-8.3,6.72ZM973.8,562.43l-.39-.69h-64.11c.67,1.1,1.42,1.49,2.17,1.52,18.63.68,37.26,1.42,55.9,1.83,2.12.05,4.29-1.73,6.43-2.66ZM778.01,367.02c-.96-7.1-1.59-7.45-15.33-8.69-2.96,3.55-2.35,7.53,1.24,9.16,6.17,2.8,12.93,4.29,20.8,6.75-1.66-4.29-2.88-7.45-4.41-11.42-1.11,2.01-1.7,3.1-2.31,4.2ZM859.29,258.8c-1.62,1.51-2.41,2.24-3.84,3.57,2.55-6.7,1.86-8.53-3.17-10.52-5.86-2.32-7.63-1.47-10.71,5.47,2.3,1.17,4.54,2.64,6.99,3.48,2.9.99,5.13,1.91,6.3,5.35,1.02,3.02,3.83,5.18,8.4,4.68-1.35-4.08-2.51-7.6-3.97-12.03ZM844.01,282.16c-.44-4.86-1.03-9.1-1.15-13.35-.15-5.29-3.88-9.27-9.76-9.91-1.72,12.5,1.14,19.33,10.92,23.26ZM968.58,387.06c5.46-6.54,10.92-13.07,16.52-19.79-6.18,1.39-11.61,2.6-17.53,3.93v15.5c.5.18.5.18,1,.36ZM873.53,573.28c-17.57-1.44-35.14-1.98-52.71-.2l.09,1.66h52.56c.04-.93.02-.53.06-1.46ZM865.32,295.78c4.2-5.55,3.61-14.05-1.27-18.15-.89-.74-2.51-1.13-3.63-.9-.8.17-1.77,1.61-1.89,2.57-.79,6.58-.21,12.71,6.78,16.48ZM946.1,312.7c1.31-.84,2.63-1.68,4.38-2.81.59,4.7,3.64,4.69,6.73,3.93,1.71-.42,3.44-1.33,4.78-2.47,1.35-1.16,2.22-2.88,3.3-4.36-1.74-.43-3.47-1.04-5.24-1.25-1.79-.21-3.63.05-5.44-.04-4.86-.24-7.12,2.91-8.5,7ZM769.12,434.48l-.46-1.82c-6.97.8-13.94,1.59-21.56,2.47,2.4,2.42,0,8.42,5.76,6.54,5.6-1.83,10.85-4.74,16.26-7.18ZM848.73,270c0,2.72.06,4.86-.02,6.98-.08,2.13-.3,4.25-.48,6.62,2.32,1.06,4.68,2.14,7.02,3.22,2.87-6.08.73-11.74-6.52-16.82ZM834.56,310.74c-2.68-4.61-12.1-6.08-17.82-3.22,4.48,8.86,11.35,3.37,17.82,3.22ZM915.34,270.69c5.65.59,10.87,1.13,16.09,1.67.29-.46.58-.92.86-1.38-1.15-1.71-2.14-4.74-3.47-4.89-4.7-.54-10.35-2.99-13.48,4.61ZM917.34,260.65c-9.3-.95-13.55,3.32-12.02,11.64,6.46-1.21,9.03-6.24,12.02-11.64ZM981.17,444.74h-19.6s0,6.01,0,6.01c6.94-1.59,13.35-3.05,19.76-4.52l-.17-1.49ZM867.98,263.41c3.96-3.17,7.7-6.16,11.65-9.32-4.2-2.81-7.57-2.24-10.66.79-2.09,2.04-4.06,4.14-.99,8.54ZM982.1,379.03c-2.58,3.17-5.16,6.34-8.27,10.15,4.1,1.13,6.6,1.81,9.74,2.67v-12.3q-.73-.26-1.47-.52ZM989.98,373.36c-.38,6.38-.71,11.86-1.04,17.33,6.92-8.2,7.24-13.15,1.04-17.33ZM859.04,243.14c-1.32,4.75-.61,8.72,3.89,11.52,3.8-5.17,2.22-9.76-3.89-11.52ZM922.7,313.72c-4.06.39-7.92.77-11.78,1.13-.32.03-.77-.2-.97-.05-.58.45-1.26.95-1.51,1.58-.12.32.51,1.11.98,1.44,4.15,2.91,11.02.94,13.27-4.1ZM819.97,268.1c3.34,5.62,6.82,9.03,12.58,9.29-3.94-2.86-4.92-9.51-12.58-9.29ZM963.69,371.37c-3.57,8.39-2.94,14.19,1.6,15.41-.56-5.36-1.08-10.38-1.6-15.41ZM787.94,441.39c.4.42.8.85,1.2,1.27,2.54-1.75,5.08-3.49,7.63-5.24-2.35-1.04-4.7-2.08-7.51-3.32-.58,3.22-.95,5.26-1.31,7.29ZM830.58,269.18v-9.84c-3.37.68-6.22,1.25-8.84,1.78,3.13,2.85,5.92,5.4,8.84,8.06ZM869.08,271.92c3.13-2.1,5.39-3.21,7.04-4.91.65-.67-.07-2.66-.16-4.04-2.21,1.25-4.62,2.27-6.52,3.89-.7.6-.23,2.58-.36,5.07ZM801.44,432.71c-.82-5.74-3.58-6.58-9.84-3.22,3.44,1.12,6.32,2.06,9.84,3.22ZM892.58,320.78c3.37-1.3,6.15-2.37,8.93-3.44.31-.5.63-1,.94-1.5-1.02-.49-2.1-1.48-3.05-1.36-2.27.28-4.47,1.07-6.82,1.69v4.61ZM774.34,352.87c3.75,4.86,7.96,5.05,10.94.68-3.49-.22-7.11-.44-10.94-.68ZM846.07,245.19c3.34,1.36,5.97,2.42,8.84,3.59-.82-5.33-3.03-6.36-8.84-3.59ZM892.83,257.48c-1.07,1.79-2.47,3.12-2.22,3.97.35,1.19,1.78,2.49,3.01,2.85.72.21,1.94-1.34,2.94-2.1-1.05-1.32-2.09-2.64-3.73-4.72ZM763.31,442.59c.03.43.06.87.08,1.3,2.31.31,4.62.62,7.77,1.03-.54-2.25-.87-3.67-1.33-5.58-2.59,1.29-4.56,2.26-6.53,3.24ZM879.68,266.38c2.51-1.41,5.02-2.82,8.33-4.69-5.46-2.22-7.92-.57-8.33,4.69ZM773.77,439.04c1.17,2.09,1.99,3.55,2.8,5.01.62-1.11,1.76-2.22,1.74-3.32-.03-1.32-1.03-2.62-1.61-3.93-.86.66-1.71,1.31-2.93,2.25ZM899.91,374.86c-.11,0-.22.01-.33.02v16.21c.43-.02.85-.03,1.28-.05-.32-5.39-.63-10.79-.95-16.18Z"/>
  <path class="cls-3" d="M963.69,371.37c.52,5.02,1.04,10.04,1.6,15.41-4.53-1.21-5.16-7.02-1.6-15.41Z"/>
  <path class="cls-1" d="M752.49,310.6c-8.96-.78-15.47-8.06-14.66-15.93.77-7.5,8.04-14.91,20.19-12.06-7.08,2.24-11.3,5.85-11.97,12.32-.64,6.21,1.58,11.34,6.44,15.67Z"/>
  <rect class="cls-2" x="628.58" y="159.74" width="464" height="464"/>
</svg>